<svg width="230" height="210" viewBox="0 0 230 210" fill="none" xmlns="http://www.w3.org/2000/svg">
<path d="M226 106.479C226 165.286 176.691 210 115.249 210C53.8081 210 4 165.286 4 106.479C4 47.6722 53.8081 0 115.249 0C176.691 0 226 47.6722 226 106.479Z" fill="url(#paint0_linear_0_1)"/>
<g filter="url(#filter0_f_0_1)">
<path d="M14.5 109.348L215.5 109.348" stroke="#F8F2F2" stroke-width="20" stroke-linecap="round"/>
</g>
<path d="M49.5 102.02C49.5 102.62 49.98 103.1 50.58 103.1C51.18 103.1 51.68 102.62 51.68 102.02C51.68 101.42 51.18 100.92 50.58 100.92C49.98 100.92 49.5 101.42 49.5 102.02ZM48.28 102.02C48.28 100.74 49.3 99.7 50.58 99.7C51.86 99.7 52.9 100.74 52.9 102.02C52.9 103.3 51.86 104.32 50.58 104.32C49.3 104.32 48.28 103.3 48.28 102.02ZM45.52 101.22C45.46 101.5 45.34 102.48 45.34 102.98C45.34 104.16 45.34 105.86 45.34 107.02C45.34 108.64 45.34 114.6 45.34 116.28C45.34 117.44 44.66 118.16 43.24 118.16C42.18 118.16 41 118.12 40 118L39.76 115.52C40.6 115.68 41.48 115.74 41.98 115.74C42.5 115.74 42.68 115.56 42.7 115.04C42.72 114.28 42.72 107.96 42.72 107.02C42.72 106.32 42.72 104.18 42.72 102.96C42.72 102.44 42.62 101.58 42.56 101.22H45.52ZM35.72 104.42C36.32 104.5 37.02 104.56 37.64 104.56C38.86 104.56 48.56 104.56 50 104.56C50.56 104.56 51.42 104.5 51.96 104.44V107.06C51.34 107 50.56 106.98 50.02 106.98C48.58 106.98 38.96 106.98 37.64 106.98C37.04 106.98 36.28 107 35.72 107.06V104.42ZM40.82 109.84C39.9 111.6 38.04 114.22 36.96 115.4L34.78 113.94C36.12 112.66 37.72 110.46 38.54 108.76L40.82 109.84ZM49.4 108.7C50.42 109.98 52.02 112.5 52.82 113.96L50.48 115.26C49.62 113.54 48.2 111.12 47.22 109.88L49.4 108.7ZM62.96 101.34C62.74 101.86 62.48 102.54 62.3 102.98C61.96 103.98 61.34 105.46 60.82 106.48C60.02 108.06 58.66 109.98 57.34 111.16L54.82 109.64C56.26 108.58 57.54 106.78 58.3 105.52C58.84 104.6 59.22 103.54 59.46 102.78C59.68 102.12 59.84 101.36 59.88 100.74L62.96 101.34ZM59.8 104.44C61.4 104.44 69 104.44 70.38 104.44C70.88 104.44 71.8 104.4 72.46 104.3V107.02C71.7 106.96 70.84 106.96 70.38 106.96C68.98 106.96 61.4 106.96 59.6 106.96L59.8 104.44ZM67.62 105.88C67.48 111.78 65.38 115.68 61.52 118.1L58.82 116.3C59.54 116 60.24 115.6 60.7 115.2C62.98 113.46 64.76 110.7 64.84 105.88H67.62ZM84.08 105.14C84.46 105.98 85.44 108.6 85.72 109.52L83.34 110.34C83.08 109.38 82.2 106.96 81.72 105.92L84.08 105.14ZM91.46 106.58C91.24 107.24 91.12 107.66 91 108.06C90.48 110.08 89.62 112.16 88.26 113.9C86.4 116.32 83.92 117.98 81.58 118.88L79.48 116.74C81.66 116.14 84.46 114.62 86.1 112.54C87.46 110.86 88.44 108.2 88.66 105.68L91.46 106.58ZM79.44 106.18C79.94 107.2 80.92 109.64 81.3 110.76L78.86 111.66C78.54 110.6 77.52 107.92 77.04 107.06L79.44 106.18ZM111.78 103.7C111.58 104.08 111.44 104.66 111.34 105.08C110.88 107.04 110 110.14 108.32 112.38C106.52 114.76 103.86 116.76 100.28 117.9L98.1 115.5C102.08 114.58 104.32 112.84 105.94 110.82C107.28 109.14 108.02 106.88 108.3 105.16C107.08 105.16 100.48 105.16 98.98 105.16C98.06 105.16 97.12 105.22 96.6 105.24V102.42C97.2 102.5 98.32 102.58 98.98 102.58C100.48 102.58 107.12 102.58 108.24 102.58C108.62 102.58 109.26 102.56 109.8 102.44L111.78 103.7ZM131.76 107.04C131.58 107.24 131.3 107.62 131.18 107.82C130.48 108.94 128.62 111.48 127.18 112.56L125.18 111.18C126.34 110.38 127.58 108.96 128.06 108.14C127.08 108.14 120.4 108.14 119.4 108.14C118.72 108.14 118.04 108.18 117.3 108.24V105.68C117.94 105.76 118.72 105.84 119.4 105.84C120.4 105.84 127.82 105.84 128.66 105.84C129.1 105.84 129.98 105.78 130.3 105.7L131.76 107.04ZM124.9 109.12C124.8 112.88 124.8 116.38 120.12 118.94L117.98 117.26C118.5 117.04 119.02 116.82 119.62 116.4C121.88 114.84 122.3 113.08 122.3 110.56C122.3 110.06 122.22 109.56 122.14 109.12H124.9ZM135.24 109.24C138.82 108.32 141.74 107.02 143.98 105.64C146.02 104.38 148.3 102.38 149.6 100.8L151.76 102.84C149.94 104.68 147.5 106.56 145.14 107.98C142.88 109.32 139.64 110.82 136.48 111.76L135.24 109.24ZM143.56 106.94L146.4 106.26V115.28C146.4 116.16 146.44 117.4 146.58 117.9H143.4C143.48 117.42 143.56 116.16 143.56 115.28V106.94ZM158.82 101.8C160.2 102.74 162.8 104.82 163.98 106.04L161.94 108.12C160.9 107 158.38 104.82 156.92 103.82L158.82 101.8ZM156.3 115.12C159.44 114.68 162.02 113.66 163.96 112.52C167.38 110.48 169.98 107.44 171.26 104.74L172.8 107.54C171.3 110.26 168.64 113.02 165.42 114.96C163.38 116.18 160.8 117.28 158 117.76L156.3 115.12ZM189.58 100.58C190.08 101.32 190.78 102.58 191.16 103.32L189.56 104C189.14 103.2 188.52 102 187.98 101.24L189.58 100.58ZM191.94 99.68C192.46 100.42 193.2 101.7 193.56 102.4L191.96 103.08C191.54 102.24 190.9 101.08 190.36 100.32L191.94 99.68ZM182.08 108.12C184.54 109.54 188.26 112.1 190.1 113.58L188.2 115.84C186.44 114.2 182.66 111.42 180.32 109.94L182.08 108.12ZM191.5 104.72C191.28 105.1 191.02 105.66 190.84 106.16C190.22 108 189 110.56 187.22 112.78C185.34 115.12 182.76 117.36 178.94 118.8L176.62 116.8C180.8 115.5 183.2 113.4 184.9 111.4C186.26 109.8 187.5 107.52 187.88 105.96H181.1L182.04 103.7H187.72C188.34 103.7 189.02 103.6 189.46 103.46L191.5 104.72ZM184.88 101.64C184.4 102.34 183.9 103.26 183.66 103.68C182.3 106.1 179.74 109.16 176.88 111.14L174.72 109.48C178.22 107.32 180.08 104.56 181.08 102.84C181.38 102.34 181.82 101.42 182 100.74L184.88 101.64Z" fill="black"/>
<path d="M66.4283 94V79.4545H72.1669C73.2701 79.4545 74.21 79.6652 74.9865 80.0866C75.763 80.5033 76.3549 81.0833 76.7621 81.8267C77.174 82.5653 77.38 83.4176 77.38 84.3835C77.38 85.3494 77.1716 86.2017 76.755 86.9403C76.3383 87.679 75.7346 88.2543 74.9439 88.6662C74.1579 89.0781 73.2062 89.2841 72.0888 89.2841H68.4311V86.8196H71.5916C72.1835 86.8196 72.6712 86.7178 73.0547 86.5142C73.4429 86.3059 73.7318 86.0194 73.9212 85.6548C74.1153 85.2855 74.2124 84.8617 74.2124 84.3835C74.2124 83.9006 74.1153 83.4792 73.9212 83.1193C73.7318 82.7547 73.4429 82.473 73.0547 82.2741C72.6664 82.0705 72.174 81.9688 71.5774 81.9688H69.5036V94H66.4283ZM84.0739 94.2131C82.9706 94.2131 82.0166 93.9787 81.2116 93.5099C80.4115 93.0365 79.7936 92.3783 79.358 91.5355C78.9223 90.688 78.7045 89.7055 78.7045 88.5881C78.7045 87.4612 78.9223 86.4763 79.358 85.6335C79.7936 84.786 80.4115 84.1278 81.2116 83.6591C82.0166 83.1856 82.9706 82.9489 84.0739 82.9489C85.1771 82.9489 86.1288 83.1856 86.929 83.6591C87.7339 84.1278 88.3542 84.786 88.7898 85.6335C89.2254 86.4763 89.4432 87.4612 89.4432 88.5881C89.4432 89.7055 89.2254 90.688 88.7898 91.5355C88.3542 92.3783 87.7339 93.0365 86.929 93.5099C86.1288 93.9787 85.1771 94.2131 84.0739 94.2131ZM84.0881 91.8693C84.59 91.8693 85.009 91.7273 85.3452 91.4432C85.6813 91.1544 85.9347 90.7614 86.1051 90.2642C86.2803 89.767 86.3679 89.2012 86.3679 88.5668C86.3679 87.9323 86.2803 87.3665 86.1051 86.8693C85.9347 86.3722 85.6813 85.9792 85.3452 85.6903C85.009 85.4015 84.59 85.2571 84.0881 85.2571C83.5814 85.2571 83.1553 85.4015 82.8097 85.6903C82.4688 85.9792 82.2107 86.3722 82.0355 86.8693C81.8651 87.3665 81.7798 87.9323 81.7798 88.5668C81.7798 89.2012 81.8651 89.767 82.0355 90.2642C82.2107 90.7614 82.4688 91.1544 82.8097 91.4432C83.1553 91.7273 83.5814 91.8693 84.0881 91.8693ZM94.152 90.8608L94.1591 87.2315H94.5994L98.0938 83.0909H101.567L96.8722 88.5739H96.1548L94.152 90.8608ZM91.4105 94V79.4545H94.4361V94H91.4105ZM98.2287 94L95.0185 89.2486L97.0355 87.1108L101.773 94H98.2287ZM107.574 94.2131C106.451 94.2131 105.485 93.9858 104.676 93.5312C103.871 93.072 103.251 92.4233 102.815 91.5852C102.379 90.7424 102.162 89.7457 102.162 88.5952C102.162 87.473 102.379 86.4882 102.815 85.6406C103.251 84.7931 103.864 84.1326 104.654 83.6591C105.45 83.1856 106.383 82.9489 107.453 82.9489C108.172 82.9489 108.842 83.0649 109.463 83.2969C110.088 83.5241 110.632 83.8674 111.096 84.3267C111.565 84.786 111.93 85.3636 112.19 86.0597C112.45 86.7509 112.581 87.5606 112.581 88.4886V89.3196H103.369V87.4446H109.733C109.733 87.009 109.638 86.6231 109.449 86.2869C109.259 85.9508 108.996 85.688 108.66 85.4986C108.329 85.3045 107.943 85.2074 107.502 85.2074C107.043 85.2074 106.636 85.3139 106.281 85.527C105.931 85.7353 105.656 86.017 105.457 86.3722C105.258 86.7225 105.156 87.1132 105.152 87.544V89.3267C105.152 89.8665 105.251 90.3329 105.45 90.7259C105.654 91.1188 105.94 91.4219 106.309 91.6349C106.679 91.848 107.117 91.9545 107.623 91.9545C107.959 91.9545 108.267 91.9072 108.547 91.8125C108.826 91.7178 109.065 91.5758 109.264 91.3864C109.463 91.197 109.614 90.965 109.718 90.6903L112.517 90.875C112.375 91.5473 112.083 92.1345 111.643 92.6364C111.208 93.1335 110.644 93.5218 109.953 93.8011C109.266 94.0758 108.473 94.2131 107.574 94.2131ZM106.295 81.6847L107.801 78.4531H110.599L108.433 81.6847H106.295Z" fill="black"/>
<path d="M114.612 94V79.4545H124.243V81.9901H117.687V85.456H123.603V87.9915H117.687V94H114.612ZM126.254 94V83.0909H129.28V94H126.254ZM127.774 81.6847C127.324 81.6847 126.938 81.5355 126.616 81.2372C126.299 80.9342 126.141 80.572 126.141 80.1506C126.141 79.7339 126.299 79.3764 126.616 79.0781C126.938 78.7751 127.324 78.6236 127.774 78.6236C128.224 78.6236 128.607 78.7751 128.925 79.0781C129.247 79.3764 129.408 79.7339 129.408 80.1506C129.408 80.572 129.247 80.9342 128.925 81.2372C128.607 81.5355 128.224 81.6847 127.774 81.6847ZM134.729 87.6932V94H131.703V83.0909H134.587V85.0156H134.715C134.956 84.3812 135.361 83.8793 135.929 83.5099C136.498 83.1359 137.186 82.9489 137.996 82.9489C138.754 82.9489 139.414 83.1146 139.978 83.446C140.541 83.7775 140.979 84.2509 141.292 84.8665C141.604 85.4773 141.76 86.2064 141.76 87.054V94H138.735V87.5938C138.739 86.9261 138.569 86.4053 138.223 86.0312C137.878 85.6525 137.402 85.4631 136.796 85.4631C136.389 85.4631 136.029 85.5507 135.716 85.7259C135.408 85.901 135.167 86.1567 134.992 86.4929C134.821 86.8243 134.734 87.2244 134.729 87.6932ZM148.165 94.1776C147.336 94.1776 146.586 93.9645 145.913 93.5384C145.246 93.1075 144.715 92.4754 144.322 91.642C143.934 90.804 143.74 89.7765 143.74 88.5597C143.74 87.3097 143.941 86.2704 144.344 85.4418C144.746 84.6084 145.281 83.9858 145.949 83.5739C146.621 83.1572 147.357 82.9489 148.158 82.9489C148.768 82.9489 149.277 83.053 149.685 83.2614C150.097 83.465 150.428 83.7206 150.679 84.0284C150.935 84.3314 151.129 84.6297 151.261 84.9233H151.354V79.4545H154.372V94H151.389V92.2528H151.261C151.119 92.5559 150.918 92.8565 150.658 93.1548C150.402 93.4484 150.068 93.6922 149.656 93.8864C149.249 94.0805 148.752 94.1776 148.165 94.1776ZM149.124 91.7699C149.611 91.7699 150.023 91.6373 150.359 91.3722C150.7 91.1023 150.961 90.7259 151.141 90.2429C151.325 89.7599 151.418 89.1941 151.418 88.5455C151.418 87.8968 151.328 87.3333 151.148 86.8551C150.968 86.3769 150.707 86.0076 150.366 85.7472C150.026 85.4867 149.611 85.3565 149.124 85.3565C148.626 85.3565 148.207 85.4915 147.866 85.7614C147.526 86.0312 147.268 86.4053 147.092 86.8835C146.917 87.3617 146.83 87.9157 146.83 88.5455C146.83 89.1799 146.917 89.741 147.092 90.2287C147.272 90.7116 147.53 91.0904 147.866 91.3651C148.207 91.6349 148.626 91.7699 149.124 91.7699ZM156.86 94V83.0909H159.793V84.9943H159.907C160.105 84.3172 160.439 83.8059 160.908 83.4602C161.377 83.1098 161.917 82.9347 162.527 82.9347C162.679 82.9347 162.842 82.9441 163.017 82.9631C163.193 82.982 163.346 83.008 163.479 83.0412V85.7259C163.337 85.6832 163.141 85.6454 162.89 85.6122C162.639 85.5791 162.409 85.5625 162.201 85.5625C161.756 85.5625 161.358 85.6596 161.007 85.8537C160.662 86.0431 160.387 86.3082 160.184 86.6491C159.985 86.9901 159.885 87.383 159.885 87.8281V94H156.86Z" fill="#D11B1B"/>
<defs>
<filter id="filter0_f_0_1" x="0.5" y="95.3478" width="229" height="28" filterUnits="userSpaceOnUse" color-interpolation-filters="sRGB">
<feFlood flood-opacity="0" result="BackgroundImageFix"/>
<feBlend mode="normal" in="SourceGraphic" in2="BackgroundImageFix" result="shape"/>
<feGaussianBlur stdDeviation="2" result="effect1_foregroundBlur_0_1"/>
</filter>
<linearGradient id="paint0_linear_0_1" x1="115" y1="0" x2="115" y2="210" gradientUnits="userSpaceOnUse">
<stop offset="0.234375" stop-color="#FDFAFA" stop-opacity="0.89"/>
<stop offset="1" stop-color="#FA0505"/>
</linearGradient>
</defs>
</svg>
